<svg width="160" height="160" viewBox="0 0 160 160" fill="none" xmlns="http://www.w3.org/2000/svg">
<g id="arrow-button">
<path id="Arrow 1" d="M55 78C53.8954 78 53 78.8954 53 80C53 81.1046 53.8954 82 55 82V78ZM106.414 81.4142C107.195 80.6332 107.195 79.3668 106.414 78.5858L93.6863 65.8579C92.9052 65.0768 91.6389 65.0768 90.8579 65.8579C90.0768 66.6389 90.0768 67.9052 90.8579 68.6863L102.172 80L90.8579 91.3137C90.0768 92.0948 90.0768 93.3611 90.8579 94.1421C91.6389 94.9232 92.9052 94.9232 93.6863 94.1421L106.414 81.4142ZM55 82H105V78H55V82Z" fill="#083F57"></path>
<circle id="Ellipse 7" cx="80" cy="80" r="78" stroke="#083F57" stroke-width="4"></circle>
</g>
</svg>
